<svg width="240" height="190" viewBox="0 0 240 190" fill="none" xmlns="http://www.w3.org/2000/svg">
<path d="M215 79.6774H208.114L197.85 85.0777C196.695 84.4403 195.494 83.9001 194.198 83.5754L181.287 80.3448V78.8769C186.999 74.8906 190.484 68.3052 190.484 61.2903V55.9334C190.484 44.0285 181.156 34.0658 169.691 33.7187C169.109 33.7037 168.535 33.7246 167.959 33.7531L171.307 25.9167L155.079 9.69333L145.513 15.9196C141.878 13.8726 138.034 12.279 134.042 11.1612L131.679 0H108.324L105.961 11.1642C101.969 12.282 98.1219 13.8756 94.4903 15.9226L84.9242 9.69632L68.7098 25.9107L72.0002 33.7531C71.8745 33.7471 71.7548 33.7246 71.6291 33.7216C65.7605 33.5511 60.233 35.6923 56.0342 39.7684C51.8295 43.8414 49.5161 49.3076 49.5161 55.1613V61.2903C49.5161 68.3052 52.9981 74.8876 58.7097 78.8739V80.3448L50.2882 82.4501L35.024 73.5484H25V137.049L55.1484 147.097H61.02L61.7532 144.529L70.9947 150.076C71.1458 155.101 75.1755 159.144 80.1957 159.32C80.3723 164.32 84.39 168.337 89.3893 168.514C89.5658 173.513 93.5835 177.531 98.5828 177.708C98.7654 182.824 102.955 186.935 108.113 186.935C110.028 186.935 111.906 186.338 113.485 185.275L116.199 187.672C117.901 189.17 120.091 190 122.366 190H122.933C128.032 190 132.182 185.878 132.246 180.794C137.29 180.73 141.375 176.645 141.44 171.601C146.487 171.537 150.575 167.446 150.633 162.398C155.727 162.279 159.839 158.117 159.839 152.995C159.839 152.687 159.824 152.383 159.792 152.077L215 124.475V79.6774ZM184.355 55.9334V61.2903C184.355 66.7295 181.416 71.8111 176.685 74.5509L175.152 75.4368L175.164 85.1346L190.475 88.9593L156.774 106.697V98.4416C156.774 94.3222 155.11 90.5499 152.385 87.7622L162.903 85.1346V75.4293L161.374 74.545C156.646 71.8111 153.71 66.7295 153.71 61.2903V55.1613C153.71 50.982 155.362 47.0735 158.365 44.1632C161.365 41.2543 165.345 39.6861 169.507 39.8477C177.693 40.0931 184.355 47.31 184.355 55.9334ZM124.621 104.288L110.748 99.8541C104.426 97.8281 97.5832 97.5258 91.1115 98.9593L89.3548 99.3484V98.4416C89.3548 94.2159 92.2203 90.5469 96.3173 89.5204L113.871 85.1346V75.4293L112.342 74.545C107.613 71.8111 104.677 66.7295 104.677 61.2903V55.1613C104.677 50.982 106.329 47.0735 109.333 44.1632C112.333 41.2543 116.338 39.6861 120.474 39.8477C128.661 40.0931 135.323 47.31 135.323 55.9334V61.2903C135.323 66.7295 132.384 71.8111 127.652 74.5509L126.12 75.4368L126.132 85.1346L143.683 89.5204C147.78 90.5469 150.645 94.2159 150.645 98.4416V109.925L149.888 110.323H148.01L129.17 104.939C127.685 104.518 126.156 104.346 124.621 104.288ZM90.0417 45.866C95.7966 34.7152 107.38 27.5806 120 27.5806C132.5 27.5806 144.034 34.6195 149.833 45.6191C148.374 48.5444 147.581 51.784 147.581 55.1613V61.2903C147.581 68.3052 151.063 74.8876 156.774 78.8739V80.3448L144.516 83.4138L132.255 80.3448V78.8769C137.967 74.8906 141.452 68.3052 141.452 61.2903V55.9334C141.452 44.0285 132.123 34.0658 120.658 33.7187C114.793 33.5466 109.262 35.6893 105.063 39.7654C100.862 43.8414 98.5484 49.3076 98.5484 55.1613V61.2903C98.5484 68.3052 102.03 74.8876 107.742 78.8739V80.3448L95.4839 83.4138L83.2228 80.3448V78.8769C88.9344 74.8906 92.4193 68.3052 92.4193 61.2903V55.9334C92.4193 52.3272 91.5515 48.9036 90.0417 45.866ZM75.9476 27.3323L85.7382 17.5417L94.3556 23.15L96.0046 22.1384C100.136 19.6066 104.601 17.7526 109.274 16.6349L111.16 16.183L113.292 6.12903H126.711L128.837 16.18L130.723 16.6304C135.396 17.7497 139.861 19.6036 143.992 22.1354L145.641 23.147L154.259 17.5387L164.037 27.3203L160.561 35.4589C158.196 36.4764 156.002 37.9084 154.093 39.7594C153.967 39.8821 153.859 40.0138 153.737 40.1395C146.517 28.6625 133.753 21.4516 120 21.4516C106.148 21.4516 93.3486 28.7298 86.1467 40.3235C84.2194 38.3065 81.927 36.6724 79.3862 35.5307L75.9476 27.3323ZM64.8387 85.1346V75.4293L63.3094 74.545C58.581 71.8111 55.6452 66.7295 55.6452 61.2903V55.1613C55.6452 50.982 57.2971 47.0735 60.3003 44.1632C63.3005 41.2543 67.2897 39.6861 71.4421 39.8477C79.6286 40.0931 86.2903 47.31 86.2903 55.9334V61.2903C86.2903 66.7295 83.3515 71.8111 78.6201 74.5509L77.0878 75.4368L77.0998 85.1346L87.6146 87.7622C84.8897 90.5499 83.2258 94.3222 83.2258 98.4416V100.712L73.6671 102.836L73.9155 101.968L74.0323 96.3048L57.8702 86.8763L64.8387 85.1346ZM31.129 79.6774H33.3631L55.4028 92.5325L44.2819 137.014L31.129 132.629V79.6774ZM56.1419 140.968L50.1102 138.958L60.9138 95.7482L67.9032 99.8242V100.7L56.3993 140.968H56.1419ZM77.0968 149.79C77.0968 148.886 77.4619 148.001 78.1023 147.36L83.4892 141.973C84.1296 141.333 85.0154 140.968 85.9192 140.968C87.8136 140.968 89.3548 142.509 89.3548 144.403C89.3548 145.307 88.9897 146.193 88.3493 146.833L82.9624 152.22C82.322 152.861 81.4362 153.226 80.5324 153.226C78.638 153.226 77.0968 151.685 77.0968 149.79ZM86.2903 158.984C86.2903 158.08 86.6554 157.194 87.2959 156.554L92.6827 151.167C93.3231 150.526 94.209 150.161 95.1128 150.161C97.0072 150.161 98.5484 151.703 98.5484 153.597C98.5484 154.501 98.1833 155.387 97.5428 156.027L92.156 161.414C91.5156 162.054 90.6297 162.419 89.7259 162.419C87.8316 162.419 86.2903 160.878 86.2903 158.984ZM95.4839 168.177C95.4839 167.273 95.849 166.388 96.4894 165.747L101.876 160.36C102.517 159.72 103.403 159.355 104.306 159.355C106.201 159.355 107.742 160.896 107.742 162.79C107.742 163.694 107.377 164.58 106.736 165.221L101.35 170.607C100.709 171.248 99.8233 171.613 98.9195 171.613C97.0251 171.613 95.4839 170.072 95.4839 168.177ZM108.113 180.806C106.219 180.806 104.677 179.265 104.677 177.371C104.677 176.467 105.043 175.581 105.683 174.941L111.07 169.554C111.71 168.914 112.596 168.548 113.5 168.548C115.394 168.548 116.935 170.09 116.935 171.984C116.935 172.888 116.57 173.774 115.93 174.414L110.543 179.801C109.903 180.441 109.017 180.806 108.113 180.806ZM122.933 183.871H122.366C121.585 183.871 120.836 183.587 120.254 183.07L117.962 181.049L120.263 178.747C121.085 177.926 121.722 176.949 122.194 175.9L124.98 178.219C125.709 178.827 126.129 179.722 126.129 180.675C126.129 182.437 124.696 183.871 122.933 183.871ZM150.415 156.29H149.885C149.116 156.29 148.365 156.018 147.777 155.524L131.158 141.676L127.232 146.386L143.37 159.832C144.096 160.44 144.516 161.335 144.516 162.288C144.516 164.05 143.083 165.484 141.32 165.484H140.651C139.907 165.484 139.18 165.221 138.607 164.742L121.962 150.872L118.035 155.583L134.173 169.03C134.902 169.633 135.323 170.528 135.323 171.481C135.323 173.244 133.889 174.677 132.126 174.677C130.95 174.677 129.804 174.26 128.902 173.51L122.062 167.809C120.555 164.73 117.459 162.582 113.834 162.454C113.657 157.454 109.639 153.437 104.64 153.26C104.463 148.261 100.446 144.243 95.4465 144.067C95.2669 138.951 91.0771 134.839 85.9192 134.839C83.4009 134.839 80.9364 135.859 79.1557 137.64L73.7689 143.027C73.4472 143.348 73.1808 143.714 72.91 144.076L63.4965 138.427L71.7488 109.544L92.4373 104.945C97.8646 103.731 103.587 103.995 108.879 105.688L113.394 107.132L98.089 114.785C94.592 116.537 92.4193 120.055 92.4193 123.966V124.572C92.4193 130.233 97.0251 134.839 102.686 134.839C104.546 134.839 106.376 134.333 107.966 133.374L119.378 126.531C121.67 125.157 124.746 125.458 126.726 127.239L152.619 150.541C153.312 151.17 153.71 152.062 153.71 152.995C153.71 154.813 152.233 156.29 150.415 156.29ZM208.871 120.686L157.243 146.503C157.075 146.325 156.9 146.156 156.716 145.991L130.828 122.688C128.559 120.641 125.626 119.516 122.571 119.516C120.337 119.516 118.143 120.124 116.222 121.276L104.806 128.122C104.166 128.508 103.434 128.71 102.686 128.71C100.402 128.71 98.5484 126.856 98.5484 124.572V123.966C98.5484 122.388 99.4252 120.972 100.835 120.267L117.929 111.72C120.854 110.255 124.327 109.928 127.48 110.834L146.738 116.335L151.402 116.452L208.871 86.2045V120.686Z" fill="#7CFFB0"/>
</svg>
