<svg width="240" height="190" viewBox="0 0 240 190" fill="none" xmlns="http://www.w3.org/2000/svg">
<path d="M84.6022 57.5266C74.992 57.5266 67.2028 64.1976 67.2028 72.4266C67.2028 80.6564 74.992 87.3287 84.6022 87.3287C94.2108 87.3287 102 80.6564 102 72.4266C102 64.1976 94.2108 57.5266 84.6022 57.5266ZM39.3986 57.5273C29.79 57.5281 22 64.1976 22 72.4273C22 80.6564 29.79 87.328 39.3986 87.328C49.008 87.328 56.7981 80.6564 56.7981 72.4273C56.7981 64.1975 49.0089 57.5273 39.3986 57.5273ZM79.3987 38.9007C79.3987 47.1298 71.6095 53.8029 62.0009 53.8029C52.3907 53.8029 44.6014 47.1298 44.6014 38.9007C44.6014 30.6716 52.3907 24 62.0008 24C71.6094 24 79.3987 30.6716 79.3987 38.9007Z" fill="url(#paint0_radial)"/>
<g clip-path="url(#clip0)">
<path d="M95.7478 106H30.2522C26.2469 106 23 108.781 23 112.211V168.302C23 171.732 26.2469 174.513 30.2522 174.513H95.7478C99.7531 174.513 103 171.732 103 168.302V112.211C103 108.781 99.7531 106 95.7478 106Z" fill="#DC395F"/>
<path d="M49.7358 127.556C52.3951 127.556 54.6229 125.771 54.6229 123.431C54.6229 121.093 52.3951 119.308 49.7358 119.308C47.0764 119.308 44.8492 121.093 44.8492 123.431C44.8492 125.771 47.0764 127.556 49.7358 127.556ZM39.6026 149.641C39.3155 150.687 39.1714 151.817 39.1714 152.739C39.1714 156.371 41.4711 158.782 46.3583 158.782C50.4114 158.782 53.6973 156.721 56.0633 153.392L54.6186 158.357H62.667L67.267 142.557C68.417 138.556 70.6448 136.48 74.0229 136.48C76.682 136.48 78.3348 137.896 78.3348 140.234C78.3348 140.911 78.2629 141.649 77.9754 142.45L75.6036 149.712C75.2442 150.759 75.1011 151.806 75.1011 152.79C75.1011 156.238 77.472 158.76 82.431 158.76C86.6714 158.76 90.0489 156.422 91.9176 150.821L88.7557 149.775C87.1745 153.528 85.8089 154.206 84.7307 154.206C83.6526 154.206 83.0776 153.591 83.0776 152.361C83.0776 151.807 83.222 151.192 83.437 150.452L85.7373 143.376C86.312 141.715 86.5279 140.242 86.5279 138.888C86.5279 133.595 82.7904 130.832 78.2629 130.832C74.0229 130.832 69.7104 134.108 67.5548 137.555L69.1354 131.367H56.8467L55.1217 136.817H60.8714L57.3308 148.957C54.5504 154.25 49.4433 154.336 48.8023 154.213C47.7498 154.01 47.0767 153.668 47.0767 152.497C47.0767 151.821 47.2204 150.85 47.5798 149.68L52.9704 131.367H39.3155L37.5905 136.817H43.2676L39.603 149.641" fill="white"/>
</g>
<g clip-path="url(#clip1)">
<path d="M199.188 106H134.812C130.498 106 127 108.996 127 112.691V167.822C127 171.517 130.498 174.513 134.812 174.513H199.188C203.502 174.513 207 171.517 207 167.822V112.691C207 108.996 203.502 106 199.188 106Z" fill="url(#paint1_linear)"/>
<path d="M192.85 114.907H175.95C173.879 114.907 172.2 116.345 172.2 118.118V141.67C172.2 143.443 173.879 144.881 175.95 144.881H192.85C194.921 144.881 196.6 143.443 196.6 141.67V118.118C196.6 116.345 194.921 114.907 192.85 114.907Z" fill="white"/>
<path d="M158.05 114.907H141.15C139.079 114.907 137.4 116.345 137.4 118.118V158.798C137.4 160.572 139.079 162.009 141.15 162.009H158.05C160.121 162.009 161.8 160.572 161.8 158.798V118.118C161.8 116.345 160.121 114.907 158.05 114.907Z" fill="white"/>
</g>
<g clip-path="url(#clip2)">
<path d="M155.425 60.6927C155.425 56.7213 157.16 53.9481 160.313 53.9481C162.237 53.9481 163.811 54.9733 164.664 55.9775C164.786 56.1209 165.004 56.4688 164.873 57.1158C164.706 57.8126 164.399 58.8605 164.179 59.5413C164.051 59.938 163.724 59.8857 163.556 59.7439C162.948 59.2301 161.952 58.361 161.036 58.2007C160.805 58.1586 160.572 58.1418 160.338 58.1503C159.532 58.1803 158.859 58.6475 158.621 59.674C158.575 59.8682 158.549 60.0744 158.545 60.2834C158.523 61.6361 159.651 62.1252 161.017 62.5171C163.558 63.2434 165.48 64.4864 165.48 68.8502C165.48 72.556 163.715 75.9051 160.257 75.8025C157.978 75.7255 156.361 74.4402 155.494 73.1928C155.464 73.1505 155.135 72.5898 155.311 71.9155C155.514 71.0474 155.855 70.0525 156.123 69.5243C156.272 69.185 156.666 69.1311 156.87 69.3425C157.584 70.0833 158.76 71.2712 160.115 71.35C160.222 71.3561 160.328 71.3572 160.432 71.3526C161.651 71.3033 162.388 70.532 162.373 69.2327C162.36 68.088 161.393 67.4193 159.854 66.9353C157.4 66.1636 155.425 64.8134 155.425 60.6927H155.425ZM177.724 66.3475C175.993 66.3853 174.406 67.1749 174.36 69.4323C174.36 71.2237 175.23 72.1036 176.452 71.9884C177.625 71.8 178.519 70.9514 178.913 69.8255C179.058 69.4082 179.081 67.8468 179.072 67.1794C179.069 67.0374 178.901 66.7685 178.827 66.7168C178.46 66.4582 178.188 66.3783 177.724 66.347L177.724 66.3475ZM171.964 57.2511C172.774 56.0424 174.379 54.1609 176.936 54.2601C180.311 54.3772 182.094 57.018 182.26 63.335C182.329 65.9401 182.216 73.2065 182.189 75.0169C182.185 75.2766 182.132 75.4562 181.922 75.4629C181.366 75.5002 180.082 75.4854 179.492 75.4725C179.194 75.4484 179.16 75.2019 179.156 74.9438C179.153 74.7749 179.145 74.2743 179.139 73.8661C179.135 73.6495 179.013 73.6557 178.982 73.7112C178.19 75.122 176.894 75.8033 175.515 75.8033C173.419 75.8033 171.33 73.7457 171.336 69.6711C171.343 65.4982 173.116 63.4398 175.063 62.9545C176.31 62.6446 177.716 62.9201 178.781 63.6261C178.849 63.6717 178.988 63.6057 178.989 63.4446C178.994 62.9129 178.978 61.8995 178.917 61.4193C178.761 60.1955 178.149 59.2108 176.864 58.9455C176.599 58.8911 176.333 58.8731 176.066 58.9085C175.045 59.0425 173.815 60.3719 173.306 60.8696C173.186 60.9864 172.999 60.9009 172.938 60.7704C172.641 60.1299 171.894 58.2564 171.835 57.9571C171.777 57.6585 171.86 57.4071 171.964 57.2501L171.964 57.2511V57.2511ZM183.373 65.0192C183.353 59.1993 185.783 54.2896 189.729 54.2464C192.19 54.2196 193.979 56.0823 194.294 56.9609C194.358 57.1672 194.326 57.3396 194.281 57.5473C194.073 58.2816 193.546 59.7005 193.171 60.5045C193.011 60.8471 192.838 60.5536 192.636 60.3298C192.077 59.708 191.014 58.9477 189.968 58.9477C188.071 58.9482 186.658 61.1196 186.673 65.1146C186.688 68.9483 188.042 71.0551 189.975 71.1315C190.985 71.1739 191.965 70.2045 192.491 69.4104C192.657 69.1694 192.828 69.29 193.017 69.5366C193.388 70.1694 193.92 71.1463 194.215 71.8187C194.408 72.1923 194.264 72.5579 194.194 72.7048C193.394 74.3951 191.848 75.8177 189.802 75.837C185.518 75.8872 183.393 70.8606 183.374 65.02L183.373 65.0192ZM203.821 75.5747C204.022 75.5495 206.168 75.0552 206.827 74.8036C206.99 74.7414 207.048 74.512 206.957 74.2847C206.589 73.3644 205.622 70.7507 204.609 68.4109C203.678 66.2596 202.696 64.3674 202.379 63.6395C202.301 63.4626 202.306 63.2884 202.39 63.1512C202.994 62.1649 205.52 58.0308 206.47 56.3235C206.838 55.6594 206.617 55.3737 206.305 55.2185C205.701 54.9183 204.726 54.5442 204.17 54.3488C203.937 54.2663 203.655 54.2952 203.45 54.6463C202.5 56.1244 199.602 60.9795 198.737 62.4308C198.581 62.6926 198.49 62.6344 198.489 62.2603C198.482 59.4622 198.449 47.4826 198.389 45.5121C198.385 45.2516 198.197 45.0538 198.091 45.0445C197.547 44.997 196.173 44.9834 195.631 45.0364C195.479 45.0651 195.334 45.3232 195.321 45.5414C195.196 48.6921 195.374 71.8211 195.448 75.0566C195.454 75.2906 195.558 75.472 195.691 75.4851C196.232 75.5374 197.568 75.5339 198.192 75.5144C198.499 75.5144 198.537 75.1541 198.537 75.1541L198.583 68.9478C198.583 68.9478 198.615 68.6717 198.666 68.5806C198.886 68.1853 199.495 67.0966 199.754 66.6758C199.816 66.5748 199.915 66.582 199.978 66.7249C200.287 67.419 201.166 69.6757 201.981 71.6911C202.73 73.5426 203.429 75.1858 203.478 75.3018C203.59 75.5698 203.722 75.5806 203.821 75.5755V75.5747H203.821ZM167.329 75.5532C167.518 75.5637 168.95 75.561 169.584 75.5596C169.797 75.5666 169.908 75.2967 169.916 75.0585C170.05 70.5221 169.993 48.924 169.907 45.5135C169.9 45.2187 169.825 45.108 169.704 45.0812C169.16 44.9595 167.613 44.9879 167.117 45.2045C167.02 45.2465 166.963 45.3696 166.959 45.5277C166.838 54.3185 166.92 74.5857 166.946 74.9695C166.971 75.3538 167.092 75.5398 167.329 75.5532H167.329V75.5532Z" fill="#443642"/>
<path d="M129.013 66.5333C128.13 66.5445 127.383 65.667 127.107 64.2975C127.097 64.2458 127.088 64.1937 127.079 64.1412C126.779 62.3874 127.361 60.5525 128.405 59.965L145.145 50.6052C145.344 50.5092 145.549 50.4591 145.756 50.4562C146.662 50.4444 147.43 51.3412 147.712 52.7396L147.737 52.8747C148.05 54.7015 147.272 56.3321 146.34 56.8547C146.339 56.8555 146.17 56.9512 129.693 66.34C129.474 66.4646 129.244 66.5299 129.013 66.5333V66.5333Z" fill="#70CADB"/>
<path d="M131.803 80.2728C130.914 80.2835 130.164 79.4184 129.891 78.0684C129.881 78.017 129.871 77.9653 129.862 77.9132C129.558 76.1384 130.14 74.2843 131.187 73.696L147.928 64.2504C148.144 64.1298 148.367 64.0682 148.592 64.0647C149.484 64.0534 150.267 64.9625 150.543 66.3278L150.569 66.4698C150.731 67.4135 150.635 68.474 150.314 69.311C150.074 69.9334 149.318 70.4812 149.318 70.4812L132.514 80.0704C132.285 80.1999 132.045 80.2684 131.803 80.2733V80.2728V80.2728Z" fill="#E01765"/>
<path d="M145.739 80.3328C145.305 80.3398 144.881 80.1173 144.527 79.6974C144.174 79.2774 143.909 78.6815 143.771 77.9949L138.184 50.2985L138.156 50.143C137.853 48.3768 138.435 46.5345 139.478 45.9475C139.687 45.8304 139.903 45.7693 140.12 45.7661C140.443 45.7621 140.755 45.8835 141.05 46.126C141.292 46.326 141.508 46.604 141.686 46.944C141.864 47.284 141.999 47.6793 142.085 48.1072L147.672 75.8013L147.688 75.8902C148.002 77.724 147.421 79.5674 146.378 80.1543C146.172 80.2692 145.956 80.3295 145.739 80.3328V80.3328Z" fill="#E8A723"/>
<path d="M137.434 84.9977C137 85.0046 136.575 84.782 136.222 84.3617C135.868 83.9413 135.603 83.345 135.465 82.658L129.879 54.9625C129.793 54.5353 129.757 54.0837 129.776 53.6337C129.794 53.1837 129.865 52.7441 129.985 52.34C130.105 51.936 130.272 51.5754 130.476 51.279C130.679 50.9826 130.916 50.7562 131.172 50.6127C131.379 50.4975 131.595 50.4371 131.812 50.4336C132.246 50.4265 132.67 50.6488 133.024 51.0688C133.378 51.4888 133.642 52.0849 133.781 52.7715L139.366 80.468C139.453 80.8955 139.488 81.3473 139.47 81.7975C139.452 82.2477 139.38 82.6875 139.26 83.0917C139.14 83.4958 138.973 83.8564 138.769 84.1528C138.565 84.4491 138.328 84.6754 138.072 84.8187C137.866 84.9339 137.65 84.9942 137.433 84.9975H137.434V84.9977Z" fill="#3EB890"/>
<path d="M142.984 74.0952L146.88 71.8723L145.607 65.5605L141.706 67.7601L142.984 74.0952V74.0952Z" fill="#CC2027"/>
<path d="M134.692 78.8271L138.588 76.6045L137.304 70.2445L133.405 72.4449L134.692 78.8271V78.8271Z" fill="#361238"/>
<path d="M140.211 60.3478L144.107 58.1278L142.848 51.8898L138.945 54.0722L140.211 60.3478Z" fill="#65863A"/>
<path d="M131.918 65.073L135.814 62.8531L134.54 56.5355L130.637 58.7177L131.918 65.073V65.073Z" fill="#1A937D"/>
</g>
<defs>
<radialGradient id="paint0_radial" cx="0" cy="0" r="1" gradientUnits="userSpaceOnUse" gradientTransform="translate(62.0108 58.65) scale(53.04 41.987)">
<stop stop-color="#FFB900"/>
<stop offset="0.6" stop-color="#F95D8F"/>
<stop offset="0.999" stop-color="#F95353"/>
</radialGradient>
<linearGradient id="paint1_linear" x1="167" y1="106" x2="167" y2="174.513" gradientUnits="userSpaceOnUse">
<stop stop-color="#0091E6"/>
<stop offset="1" stop-color="#0079BF"/>
</linearGradient>
<clipPath id="clip0">
<rect width="80" height="68.5129" fill="white" transform="translate(23 106)"/>
</clipPath>
<clipPath id="clip1">
<rect width="80" height="68.5129" fill="white" transform="translate(127 106)"/>
</clipPath>
<clipPath id="clip2">
<rect width="80" height="40" fill="white" transform="translate(127 45)"/>
</clipPath>
</defs>
</svg>
