<svg width="2500" height="2311" viewBox="0 0 2500 2311" fill="none" xmlns="http://www.w3.org/2000/svg">
<path d="M1254.6 1148.15C1244.99 1148.15 1237.2 1155.94 1237.2 1165.54C1237.2 1175.15 1244.99 1182.95 1254.6 1182.95C1264.21 1182.95 1272 1175.15 1272 1165.54C1272 1155.94 1264.21 1148.15 1254.6 1148.15ZM1209.4 1148.15C1199.79 1148.15 1192 1155.94 1192 1165.55C1192 1175.15 1199.79 1182.94 1209.4 1182.94C1219.01 1182.94 1226.8 1175.15 1226.8 1165.55C1226.8 1155.94 1219.01 1148.15 1209.4 1148.15ZM1249.4 1126.4C1249.4 1136.01 1241.61 1143.8 1232 1143.8C1222.39 1143.8 1214.6 1136.01 1214.6 1126.4C1214.6 1116.79 1222.39 1109 1232 1109C1241.61 1109 1249.4 1116.79 1249.4 1126.4Z" fill="url(#paint0_radial)"/>
<path d="M1264.75 1202H1199.25C1195.25 1202 1192 1205.25 1192 1209.25V1274.75C1192 1278.75 1195.25 1282 1199.25 1282H1264.75C1268.75 1282 1272 1278.75 1272 1274.75V1209.25C1272 1205.25 1268.75 1202 1264.75 1202Z" fill="#DC395F"/>
<path d="M1218.74 1227.17C1221.4 1227.17 1223.62 1225.09 1223.62 1222.35C1223.62 1219.62 1221.4 1217.54 1218.74 1217.54C1216.08 1217.54 1213.85 1219.62 1213.85 1222.35C1213.85 1225.09 1216.08 1227.17 1218.74 1227.17ZM1208.6 1252.96C1208.32 1254.18 1208.17 1255.5 1208.17 1256.58C1208.17 1260.82 1210.47 1263.63 1215.36 1263.63C1219.41 1263.63 1222.7 1261.22 1225.06 1257.34L1223.62 1263.14H1231.67L1236.27 1244.69C1237.42 1240.02 1239.64 1237.59 1243.02 1237.59C1245.68 1237.59 1247.34 1239.24 1247.34 1241.97C1247.34 1242.77 1247.26 1243.63 1246.98 1244.56L1244.6 1253.04C1244.24 1254.26 1244.1 1255.49 1244.1 1256.64C1244.1 1260.66 1246.47 1263.61 1251.43 1263.61C1255.67 1263.61 1259.05 1260.88 1260.92 1254.34L1257.76 1253.12C1256.17 1257.5 1254.81 1258.29 1253.73 1258.29C1252.65 1258.29 1252.08 1257.57 1252.08 1256.13C1252.08 1255.49 1252.22 1254.77 1252.44 1253.91L1254.74 1245.64C1255.31 1243.7 1255.53 1241.98 1255.53 1240.4C1255.53 1234.22 1251.79 1231 1247.26 1231C1243.02 1231 1238.71 1234.82 1236.56 1238.85L1238.14 1231.62H1225.85L1224.12 1237.98H1229.87L1226.33 1252.16C1223.55 1258.34 1218.44 1258.44 1217.8 1258.3C1216.75 1258.06 1216.08 1257.66 1216.08 1256.29C1216.08 1255.5 1216.22 1254.37 1216.58 1253L1221.97 1231.62H1208.32L1206.59 1237.98H1212.27L1208.6 1252.96" fill="white"/>
<path d="M1372.19 1202H1307.81C1303.5 1202 1300 1205.5 1300 1209.81V1274.19C1300 1278.5 1303.5 1282 1307.81 1282H1372.19C1376.5 1282 1380 1278.5 1380 1274.19V1209.81C1380 1205.5 1376.5 1202 1372.19 1202Z" fill="url(#paint1_linear)"/>
<path d="M1365.85 1212.4H1348.95C1346.88 1212.4 1345.2 1214.08 1345.2 1216.15V1243.65C1345.2 1245.72 1346.88 1247.4 1348.95 1247.4H1365.85C1367.92 1247.4 1369.6 1245.72 1369.6 1243.65V1216.15C1369.6 1214.08 1367.92 1212.4 1365.85 1212.4Z" fill="white"/>
<path d="M1331.05 1212.4H1314.15C1312.08 1212.4 1310.4 1214.08 1310.4 1216.15V1263.65C1310.4 1265.72 1312.08 1267.4 1314.15 1267.4H1331.05C1333.12 1267.4 1334.8 1265.72 1334.8 1263.65V1216.15C1334.8 1214.08 1333.12 1212.4 1331.05 1212.4Z" fill="white"/>
<g clip-path="url(#clip0)">
<path d="M1323.32 1142.34C1323.32 1138.96 1325.78 1136.61 1330.26 1136.61C1332.99 1136.61 1335.22 1137.48 1336.43 1138.33C1336.6 1138.45 1336.91 1138.75 1336.73 1139.3C1336.49 1139.89 1336.05 1140.78 1335.74 1141.36C1335.56 1141.7 1335.09 1141.65 1334.86 1141.53C1333.99 1141.1 1332.58 1140.36 1331.28 1140.22C1330.95 1140.18 1330.62 1140.17 1330.29 1140.18C1329.15 1140.2 1328.19 1140.6 1327.86 1141.47C1327.79 1141.64 1327.75 1141.81 1327.75 1141.99C1327.72 1143.14 1329.32 1143.56 1331.26 1143.89C1334.86 1144.51 1337.59 1145.56 1337.59 1149.27C1337.59 1152.42 1335.08 1155.27 1330.18 1155.18C1326.94 1155.12 1324.65 1154.02 1323.42 1152.96C1323.38 1152.93 1322.91 1152.45 1323.16 1151.88C1323.45 1151.14 1323.93 1150.29 1324.31 1149.85C1324.52 1149.56 1325.08 1149.51 1325.37 1149.69C1326.39 1150.32 1328.05 1151.33 1329.98 1151.4C1330.13 1151.4 1330.28 1151.4 1330.43 1151.4C1332.15 1151.36 1333.2 1150.7 1333.18 1149.6C1333.16 1148.62 1331.79 1148.06 1329.61 1147.64C1326.12 1146.99 1323.32 1145.84 1323.32 1142.34H1323.32ZM1354.95 1147.15C1352.5 1147.18 1350.25 1147.85 1350.18 1149.77C1350.18 1151.29 1351.42 1152.04 1353.15 1151.94C1354.81 1151.78 1356.08 1151.06 1356.64 1150.1C1356.85 1149.75 1356.88 1148.42 1356.87 1147.85C1356.86 1147.73 1356.62 1147.5 1356.52 1147.46C1356 1147.24 1355.61 1147.17 1354.95 1147.14L1354.95 1147.15ZM1346.78 1139.41C1347.93 1138.39 1350.21 1136.79 1353.84 1136.87C1358.63 1136.97 1361.15 1139.22 1361.39 1144.58C1361.49 1146.8 1361.33 1152.98 1361.29 1154.51C1361.28 1154.74 1361.21 1154.89 1360.91 1154.89C1360.12 1154.93 1358.3 1154.91 1357.46 1154.9C1357.04 1154.88 1356.99 1154.67 1356.99 1154.45C1356.98 1154.31 1356.97 1153.88 1356.96 1153.54C1356.96 1153.35 1356.78 1153.36 1356.74 1153.4C1355.62 1154.6 1353.78 1155.18 1351.82 1155.18C1348.85 1155.18 1345.88 1153.43 1345.89 1149.97C1345.9 1146.42 1348.42 1144.67 1351.18 1144.26C1352.95 1144 1354.94 1144.23 1356.45 1144.83C1356.55 1144.87 1356.75 1144.81 1356.75 1144.68C1356.76 1144.23 1356.73 1143.36 1356.65 1142.96C1356.43 1141.92 1355.56 1141.08 1353.73 1140.85C1353.36 1140.81 1352.98 1140.79 1352.6 1140.82C1351.15 1140.94 1349.41 1142.07 1348.69 1142.49C1348.52 1142.59 1348.25 1142.52 1348.17 1142.4C1347.74 1141.86 1346.69 1140.27 1346.6 1140.01C1346.52 1139.76 1346.64 1139.55 1346.78 1139.41L1346.78 1139.41V1139.41ZM1362.97 1146.02C1362.94 1141.07 1366.39 1136.9 1371.98 1136.86C1375.48 1136.84 1378.01 1138.42 1378.46 1139.17C1378.55 1139.34 1378.51 1139.49 1378.44 1139.67C1378.15 1140.29 1377.4 1141.5 1376.87 1142.18C1376.64 1142.47 1376.39 1142.22 1376.11 1142.03C1375.32 1141.5 1373.81 1140.86 1372.32 1140.86C1369.63 1140.86 1367.63 1142.7 1367.65 1146.1C1367.67 1149.36 1369.59 1151.15 1372.33 1151.21C1373.77 1151.25 1375.16 1150.42 1375.9 1149.75C1376.14 1149.54 1376.38 1149.65 1376.65 1149.86C1377.18 1150.39 1377.93 1151.22 1378.35 1151.8C1378.62 1152.11 1378.42 1152.42 1378.32 1152.55C1377.18 1153.99 1374.99 1155.19 1372.09 1155.21C1366.01 1155.25 1363 1150.98 1362.97 1146.02L1362.97 1146.02ZM1391.98 1154.99C1392.26 1154.97 1395.3 1154.55 1396.24 1154.33C1396.47 1154.28 1396.55 1154.09 1396.42 1153.89C1395.9 1153.11 1394.53 1150.89 1393.09 1148.9C1391.77 1147.07 1390.38 1145.46 1389.93 1144.84C1389.82 1144.69 1389.83 1144.55 1389.94 1144.43C1390.8 1143.59 1394.39 1140.08 1395.73 1138.62C1396.25 1138.06 1395.94 1137.82 1395.5 1137.69C1394.64 1137.43 1393.26 1137.11 1392.47 1136.95C1392.14 1136.88 1391.74 1136.9 1391.45 1137.2C1390.1 1138.46 1385.99 1142.58 1384.76 1143.82C1384.54 1144.04 1384.41 1143.99 1384.41 1143.67C1384.4 1141.29 1384.35 1131.11 1384.27 1129.44C1384.26 1129.21 1384 1129.05 1383.85 1129.04C1383.08 1129 1381.13 1128.99 1380.36 1129.03C1380.14 1129.06 1379.94 1129.27 1379.92 1129.46C1379.74 1132.14 1379.99 1151.8 1380.1 1154.55C1380.11 1154.75 1380.25 1154.9 1380.44 1154.91C1381.21 1154.96 1383.11 1154.95 1383.99 1154.94C1384.43 1154.94 1384.48 1154.63 1384.48 1154.63L1384.54 1149.36C1384.54 1149.36 1384.59 1149.12 1384.66 1149.04C1384.97 1148.71 1385.84 1147.78 1386.21 1147.42C1386.29 1147.34 1386.43 1147.34 1386.52 1147.47C1386.96 1148.06 1388.21 1149.97 1389.36 1151.69C1390.43 1153.26 1391.42 1154.66 1391.49 1154.76C1391.65 1154.98 1391.83 1154.99 1391.98 1154.99V1154.99H1391.98ZM1340.21 1154.97C1340.48 1154.98 1342.51 1154.98 1343.41 1154.98C1343.71 1154.98 1343.87 1154.75 1343.88 1154.55C1344.07 1150.69 1343.99 1132.34 1343.87 1129.44C1343.86 1129.19 1343.75 1129.09 1343.58 1129.07C1342.81 1128.97 1340.61 1128.99 1339.91 1129.17C1339.77 1129.21 1339.69 1129.31 1339.68 1129.45C1339.51 1136.92 1339.63 1154.15 1339.67 1154.47C1339.7 1154.8 1339.87 1154.96 1340.21 1154.97H1340.21V1154.97Z" fill="#443642"/>
<path d="M1285.86 1147.3C1284.6 1147.31 1283.54 1146.57 1283.15 1145.4C1283.14 1145.36 1283.12 1145.31 1283.11 1145.27C1282.69 1143.78 1283.51 1142.22 1284.99 1141.72L1308.74 1133.76C1309.02 1133.68 1309.31 1133.64 1309.61 1133.64C1310.89 1133.63 1311.98 1134.39 1312.38 1135.58L1312.42 1135.69C1312.86 1137.25 1311.76 1138.63 1310.44 1139.08C1310.43 1139.08 1310.19 1139.16 1286.82 1147.14C1286.51 1147.24 1286.18 1147.3 1285.86 1147.3V1147.3Z" fill="#70CADB"/>
<path d="M1289.81 1158.98C1288.55 1158.99 1287.49 1158.26 1287.1 1157.11C1287.09 1157.06 1287.07 1157.02 1287.06 1156.98C1286.63 1155.47 1287.45 1153.89 1288.94 1153.39L1312.69 1145.36C1312.99 1145.26 1313.31 1145.21 1313.63 1145.21C1314.89 1145.2 1316.01 1145.97 1316.4 1147.13L1316.43 1147.25C1316.66 1148.05 1316.53 1148.95 1316.07 1149.66C1315.73 1150.19 1314.66 1150.66 1314.66 1150.66L1290.82 1158.81C1290.5 1158.92 1290.16 1158.98 1289.81 1158.98V1158.98V1158.98Z" fill="#E01765"/>
<path d="M1309.58 1159.03C1308.97 1159.04 1308.36 1158.85 1307.86 1158.49C1307.36 1158.14 1306.99 1157.63 1306.79 1157.05L1298.86 1133.5L1298.82 1133.37C1298.4 1131.87 1299.22 1130.3 1300.7 1129.81C1301 1129.71 1301.3 1129.65 1301.61 1129.65C1302.07 1129.65 1302.51 1129.75 1302.93 1129.96C1303.27 1130.13 1303.58 1130.36 1303.83 1130.65C1304.09 1130.94 1304.28 1131.28 1304.4 1131.64L1312.32 1155.18L1312.35 1155.26C1312.79 1156.82 1311.97 1158.38 1310.49 1158.88C1310.2 1158.98 1309.89 1159.03 1309.58 1159.03V1159.03Z" fill="#E8A723"/>
<path d="M1297.8 1163C1297.19 1163 1296.58 1162.81 1296.08 1162.46C1295.58 1162.1 1295.2 1161.59 1295.01 1161.01L1287.08 1137.47C1286.96 1137.11 1286.91 1136.72 1286.94 1136.34C1286.96 1135.96 1287.06 1135.58 1287.23 1135.24C1287.41 1134.9 1287.64 1134.59 1287.93 1134.34C1288.22 1134.09 1288.56 1133.89 1288.92 1133.77C1289.21 1133.67 1289.52 1133.62 1289.83 1133.62C1290.44 1133.61 1291.04 1133.8 1291.55 1134.16C1292.05 1134.52 1292.42 1135.02 1292.62 1135.61L1300.54 1159.15C1300.67 1159.51 1300.72 1159.9 1300.69 1160.28C1300.66 1160.66 1300.56 1161.03 1300.39 1161.38C1300.22 1161.72 1299.98 1162.03 1299.7 1162.28C1299.41 1162.53 1299.07 1162.72 1298.71 1162.85C1298.41 1162.94 1298.11 1163 1297.8 1163H1297.8V1163Z" fill="#3EB890"/>
<path d="M1305.67 1153.73L1311.2 1151.84L1309.39 1146.48L1303.86 1148.35L1305.67 1153.73V1153.73Z" fill="#CC2027"/>
<path d="M1293.91 1157.75L1299.44 1155.86L1297.62 1150.46L1292.09 1152.33L1293.91 1157.75V1157.75Z" fill="#361238"/>
<path d="M1301.74 1142.05L1307.27 1140.16L1305.48 1134.86L1299.94 1136.71L1301.74 1142.05Z" fill="#65863A"/>
<path d="M1289.98 1146.06L1295.5 1144.17L1293.7 1138.8L1288.16 1140.66L1289.98 1146.06V1146.06Z" fill="#1A937D"/>
</g>
<defs>
<radialGradient id="paint0_radial" cx="0" cy="0" r="1" gradientUnits="userSpaceOnUse" gradientTransform="translate(1232.01 1149.46) scale(53.04 49.0256)">
<stop stop-color="#FFB900"/>
<stop offset="0.6" stop-color="#F95D8F"/>
<stop offset="0.999" stop-color="#F95353"/>
</radialGradient>
<linearGradient id="paint1_linear" x1="1340" y1="1202" x2="1340" y2="1282" gradientUnits="userSpaceOnUse">
<stop stop-color="#0091E6"/>
<stop offset="1" stop-color="#0079BF"/>
</linearGradient>
<clipPath id="clip0">
<rect width="113.485" height="34" fill="white" transform="translate(1283 1129)"/>
</clipPath>
</defs>
</svg>
