<svg width="240" height="190" viewBox="0 0 240 190" fill="none" xmlns="http://www.w3.org/2000/svg">
<path d="M204.844 47.1875H190.781H176.719C166.648 47.1875 157.065 50.4271 150.389 56.082C148.682 57.3934 149.86 56.4631 127.419 78.8281C125.507 78.8281 114.104 78.8281 112.581 78.8281C90.0905 56.4139 91.3167 57.392 89.61 56.0817C82.935 50.4271 73.3514 47.1875 63.2812 47.1875H49.2188H35.1562C15.7711 47.1875 0 59.0158 0 73.5547V115.742C0 122.617 5.87766 128.482 14.0625 130.659V185H84.375V103.353L91.4906 110.469C97.6528 110.469 141.842 110.469 148.51 110.469L155.625 103.353V185H225.938V130.659C234.122 128.482 240 122.617 240 115.742V73.5547C240 59.0158 224.229 47.1875 204.844 47.1875ZM99.6469 99.9219H98.5214L70.3125 71.7125V174.453H56.25V121.367H42.1875V174.453H28.125L28.1236 121.016H21.0923C17.2163 121.016 14.0625 118.65 14.0625 115.742V73.5547C14.0625 64.8314 23.5252 57.7344 35.1562 57.7344H63.2812C69.3684 57.7344 75.1603 59.708 79.1709 63.1491C80.6892 64.3708 77.5481 61.4427 102.017 85.8421C99.758 88.3611 98.4375 91.3912 98.4375 94.6484C98.4375 96.497 98.8664 98.2713 99.6469 99.9219ZM225.938 115.742C225.938 118.65 222.784 121.016 218.908 121.016H211.875V174.453H197.812V121.367H183.75V174.453H169.688V71.7125L141.478 99.9219H119.532H119.531C115.654 99.9219 112.5 97.5562 112.5 94.6484C112.5 91.7407 115.654 89.375 119.531 89.375C122.741 89.375 128.837 89.375 134.451 89.375C146.709 77.1308 161.71 62.0516 160.829 63.1495C164.84 59.708 170.632 57.7344 176.719 57.7344H204.844C216.475 57.7344 225.938 64.8314 225.938 73.5547V115.742Z" fill="#0CD3FF"/>
<path d="M49.2188 5C33.7106 5 21.0938 14.4627 21.0938 26.0938C21.0938 37.7248 33.7106 47.1875 49.2188 47.1875C64.7269 47.1875 77.3438 37.7248 77.3438 26.0938C77.3438 14.4627 64.7269 5 49.2188 5ZM49.2188 36.6406C41.4647 36.6406 35.1562 31.9093 35.1562 26.0938C35.1562 20.2782 41.4647 15.5469 49.2188 15.5469C56.9728 15.5469 63.2812 20.2782 63.2812 26.0938C63.2812 31.9093 56.9728 36.6406 49.2188 36.6406Z" fill="#7CFFB0"/>
<path d="M190.781 5C175.273 5 162.656 14.4627 162.656 26.0938C162.656 37.7248 175.273 47.1875 190.781 47.1875C206.289 47.1875 218.906 37.7248 218.906 26.0938C218.906 14.4627 206.289 5 190.781 5ZM190.781 36.6406C183.027 36.6406 176.719 31.9093 176.719 26.0938C176.719 20.2782 183.027 15.5469 190.781 15.5469C198.535 15.5469 204.844 20.2782 204.844 26.0938C204.844 31.9093 198.535 36.6406 190.781 36.6406Z" fill="#7CFFB0"/>
</svg>
